<?xml version="1.0" standalone="no"?>
<!DOCTYPE svg PUBLIC "-//W3C//DTD SVG 20010904//EN"
 "http://www.w3.org/TR/2001/REC-SVG-20010904/DTD/svg10.dtd">
<svg version="1.0" xmlns="http://www.w3.org/2000/svg"
 width="158.000000pt" height="158.000000pt" viewBox="0 0 158.000000 158.000000"
 preserveAspectRatio="xMidYMid meet">
<metadata>
Created by potrace 1.11, written by Peter Selinger 2001-2013
</metadata>
<g transform="translate(0.000000,158.000000) scale(0.100000,-0.100000)"
fill="#000000" stroke="none">
<path d="M0 1498 l1 -83 19 37 c24 44 85 98 131 114 31 11 26 13 -58 13 l-93
1 0 -82z"/>
<path d="M1421 1566 c41 -15 89 -47 110 -73 8 -11 4 -10 -11 4 -14 12 -45 31
-70 42 -44 20 -63 21 -652 21 -402 0 -616 -4 -635 -11 -52 -19 -104 -62 -131
-108 l-27 -46 -3 -697 -2 -698 790 0 790 0 0 790 -1 790 -97 0 c-91 -1 -95 -2
-61 -14z m-470 -239 c169 -52 295 -172 351 -336 17 -50 22 -88 22 -156 -1
-169 -47 -290 -153 -396 -103 -103 -212 -149 -356 -149 -146 0 -267 52 -367
159 -90 96 -136 211 -143 356 -12 240 136 447 370 521 54 17 221 17 276 1z"/>
<path d="M722 1245 c-166 -36 -312 -195 -326 -355 -5 -54 -5 -54 4 -12 46 215
231 354 449 339 185 -12 341 -151 381 -338 9 -44 9 -43 4 11 -3 34 -18 82 -39
127 -59 121 -174 207 -309 232 -73 13 -84 13 -164 -4z"/>
<path d="M1005 868 c-60 -62 -105 -138 -105 -178 0 -14 -11 -22 -42 -30 -92
-24 -140 -43 -193 -78 -30 -20 -55 -42 -55 -49 0 -19 4 -17 74 25 35 21 92 46
127 56 97 27 109 34 109 56 0 41 45 116 107 178 35 35 63 68 63 73 0 22 -29 4
-85 -53z"/>
</g>
</svg>
